<svg id="Layer_1" data-name="Layer 1" xmlns="http://www.w3.org/2000/svg" xmlns:xlink="http://www.w3.org/1999/xlink" viewBox="0 0 256 256"><defs><style>.cls-1{fill:#12a0af;}.cls-2{fill:url(#linear-gradient);}.cls-3{fill:url(#linear-gradient-2);}.cls-4{fill:url(#linear-gradient-3);}</style><linearGradient id="linear-gradient" x1="100.79" y1="127.62" x2="210.16" y2="127.62" gradientUnits="userSpaceOnUse"><stop offset="0" stop-color="#124e63"/><stop offset="0.68" stop-color="#125166"/><stop offset="1" stop-color="#11566b"/></linearGradient><linearGradient id="linear-gradient-2" x1="45.84" y1="136.18" x2="128" y2="136.18" gradientUnits="userSpaceOnUse"><stop offset="0" stop-color="#5fbfcd"/><stop offset="0.13" stop-color="#4fb9c7"/><stop offset="0.52" stop-color="#24a8b6"/><stop offset="0.82" stop-color="#0a9dac"/><stop offset="1" stop-color="#0099a8"/></linearGradient><linearGradient id="linear-gradient-3" x1="50.33" y1="204.64" x2="205.66" y2="49.32" xlink:href="#linear-gradient-2"/></defs><title>ligth</title><path class="cls-1" d="M215.12,7A33.92,33.92,0,0,1,249,40.88V215.12A33.92,33.92,0,0,1,215.12,249H40.88A33.92,33.92,0,0,1,7,215.12V40.88A33.92,33.92,0,0,1,40.88,7H215.12m0-7H40.88A40.88,40.88,0,0,0,0,40.88V215.12A40.88,40.88,0,0,0,40.88,256H215.12A40.88,40.88,0,0,0,256,215.12V40.88A40.88,40.88,0,0,0,215.12,0Z"/><path class="cls-2" d="M198.16,72.91l-54-30.74a33,33,0,0,0-32.43-.12,21.44,21.44,0,0,0-11,18.69v9.87c0-22.89,27.21-6.93,27.21-6.93l48.48,27.61A12.82,12.82,0,0,1,183,102.43v26.38l-27.74,15.13V112.38L128,127.62v63.94c0,29.66-16.18,21.52-16.18,21.52a33,33,0,0,0,32.43.11,21.42,21.42,0,0,0,11-18.69V175L183,159.82v29.83l27.21-15.23V93.55A23.75,23.75,0,0,0,198.16,72.91Z"/><path class="cls-3" d="M100.79,70.61v9.72L73.05,95.42V65.59L45.84,80.83V161.7a23.74,23.74,0,0,0,12,20.63l54,30.75S128,221.22,128,191.56L79.52,164a12.82,12.82,0,0,1-6.47-11.14V126.44l27.74-15.14v31.56L128,127.63V63.68S100.79,47.72,100.79,70.61Z"/><path class="cls-4" d="M128.18,240.65,32.89,187.2V66.94l95.28-51.33,94.94,51.16V187Zm-90-56.53,90,50.5L217.86,184v-114L128.17,21.57l-90,48.51Z"/></svg>