<svg xmlns="http://www.w3.org/2000/svg" xmlns:xlink="http://www.w3.org/1999/xlink" viewBox="0 0 1139.41 201.12"><defs><style>.cls-1{fill:url(#linear-gradient);}.cls-2{fill:url(#linear-gradient-2);}.cls-3{fill:url(#linear-gradient-3);}.cls-4{fill:url(#linear-gradient-4);}.cls-5{fill:url(#linear-gradient-6);}</style><linearGradient id="linear-gradient" x1="60.69" y1="100.11" x2="158.43" y2="100.11" gradientUnits="userSpaceOnUse"><stop offset="0" stop-color="#124e63"/><stop offset="0.68" stop-color="#125166"/><stop offset="1" stop-color="#11566b"/></linearGradient><linearGradient id="linear-gradient-2" x1="11.58" y1="107.76" x2="85.01" y2="107.76" gradientUnits="userSpaceOnUse"><stop offset="0" stop-color="#5fbfcd"/><stop offset="0.13" stop-color="#4fb9c7"/><stop offset="0.52" stop-color="#24a8b6"/><stop offset="0.82" stop-color="#0a9dac"/><stop offset="1" stop-color="#0099a8"/></linearGradient><linearGradient id="linear-gradient-3" x1="15.59" y1="168.95" x2="154.41" y2="30.13" xlink:href="#linear-gradient-2"/><linearGradient id="linear-gradient-4" x1="136.17" y1="98.77" x2="1145.2" y2="98.77" gradientUnits="userSpaceOnUse"><stop offset="0" stop-color="#49b7c6"/><stop offset="0.26" stop-color="#47b4c3"/><stop offset="0.45" stop-color="#42aaba"/><stop offset="0.62" stop-color="#389aab"/><stop offset="0.78" stop-color="#2b8395"/><stop offset="0.93" stop-color="#1a667a"/><stop offset="1" stop-color="#11566b"/></linearGradient><linearGradient id="linear-gradient-6" x1="136.17" y1="98.77" x2="1145.2" y2="98.77" xlink:href="#linear-gradient-4"/></defs><title>logoblue</title><g id="Layer_2" data-name="Layer 2"><g id="Layer_1-2" data-name="Layer 1"><path class="cls-1" d="M147.71,51.21,99.47,23.74a29.51,29.51,0,0,0-29-.11,19.17,19.17,0,0,0-9.79,16.71v8.82C60.69,28.7,85,43,85,43l43.33,24.68a11.46,11.46,0,0,1,5.79,10v23.57l-24.8,13.53V86.49L85,100.11v57.15c0,26.5-14.46,19.22-14.46,19.22a29.51,29.51,0,0,0,29,.11,19.17,19.17,0,0,0,9.79-16.71V142.41l24.8-13.52v26.66l24.31-13.62V69.66A21.23,21.23,0,0,0,147.71,51.21Z"/><path class="cls-2" d="M60.69,49.16v8.68L35.89,71.33V44.67L11.58,58.29v72.27A21.23,21.23,0,0,0,22.3,149l48.24,27.47S85,183.76,85,157.26L41.68,132.58a11.46,11.46,0,0,1-5.79-10V99.05l24.8-13.53v28.21L85,100.11V43S60.69,28.7,60.69,49.16Z"/><path class="cls-3" d="M85.16,201.12,0,153.35V45.88L85.16,0,170,45.73V153.19ZM4.69,150.6l80.46,45.14,80.17-45.29V48.53L85.16,5.33,4.69,48.68Z"/><path class="cls-4" d="M313,49.35v98.84H287.68V111.44h-40.3v36.75H222.17V49.35h25.21V87.74h40.3V49.35Z"/><path class="cls-4" d="M389.35,49.35v98.84H364V49.35Z"/><path class="cls-5" d="M461.53,118.54v.63a5.58,5.58,0,0,0,1,3,10,10,0,0,0,3,2.91,18.43,18.43,0,0,0,5.2,2.22,27.91,27.91,0,0,0,7.47.89q7.1,0,9.82-2t2.73-4.12q0-3.17-3.93-5.44A77.47,77.47,0,0,0,474,111.31q-6-1.89-12.35-4.5a56.91,56.91,0,0,1-11.72-6.39,33.43,33.43,0,0,1-8.81-9.25,23.74,23.74,0,0,1-3.48-13,27.86,27.86,0,0,1,2.85-12.74,28.2,28.2,0,0,1,8-9.63,37.49,37.49,0,0,1,12.23-6.15,53.64,53.64,0,0,1,15.58-2.15,55.61,55.61,0,0,1,16,2.22,38.74,38.74,0,0,1,12.8,6.4,30.74,30.74,0,0,1,8.49,10.07,28,28,0,0,1,3.1,13.24v1.4H492v-.89a8.29,8.29,0,0,0-.95-3.68,10.5,10.5,0,0,0-2.86-3.42,15.39,15.39,0,0,0-4.75-2.47,21.16,21.16,0,0,0-6.65-.95q-6.47,0-9.25,2.09t-2.79,4.63q0,2.91,3.74,4.94a91.65,91.65,0,0,0,12.61,5.07q5.07,1.77,11.53,4.37a58.81,58.81,0,0,1,12.1,6.59,37.17,37.17,0,0,1,9.5,9.75,24.36,24.36,0,0,1,3.87,13.88,25.63,25.63,0,0,1-11.22,21.92,38.89,38.89,0,0,1-12.41,5.58,61.24,61.24,0,0,1-15.65,1.9,64.56,64.56,0,0,1-16.54-2,42.35,42.35,0,0,1-13.3-5.89,28.61,28.61,0,0,1-8.87-9.57,25.68,25.68,0,0,1-3.23-12.92v-1.14Z"/><path class="cls-4" d="M558.29,49.35h86.93V73.93h-30.8v74.26H589.08V73.93H558.29Z"/><path class="cls-5" d="M683,98.77a48.13,48.13,0,0,1,4.18-20,52.61,52.61,0,0,1,11.34-16.28,53.68,53.68,0,0,1,16.73-11,52.63,52.63,0,0,1,40.54,0,53.68,53.68,0,0,1,16.73,11,51.78,51.78,0,0,1,11.28,16.28,50.41,50.41,0,0,1,0,39.92A51.78,51.78,0,0,1,772.51,135a53.68,53.68,0,0,1-16.73,11,52.63,52.63,0,0,1-40.54,0,53.68,53.68,0,0,1-16.73-11,52.61,52.61,0,0,1-11.34-16.28A48.13,48.13,0,0,1,683,98.77Zm25.59,0a26.8,26.8,0,0,0,2.09,10.52,26.28,26.28,0,0,0,5.77,8.55,27.47,27.47,0,0,0,8.55,5.7,26.16,26.16,0,0,0,10.46,2.09,26.69,26.69,0,0,0,19.07-7.79A26.89,26.89,0,0,0,746,74a26.5,26.5,0,0,0-10.58-2.09A26.16,26.16,0,0,0,725,74a27.47,27.47,0,0,0-8.55,5.7,26.28,26.28,0,0,0-5.77,8.55A26.8,26.8,0,0,0,708.58,98.77Z"/><path class="cls-4" d="M882.32,49.35a43.4,43.4,0,0,1,16.47,2.85A30.9,30.9,0,0,1,917.1,71.53a43.34,43.34,0,0,1,2.22,13.93,42.26,42.26,0,0,1-1.21,10.14,35.27,35.27,0,0,1-3.61,9.19,33.17,33.17,0,0,1-6.08,7.73,31.7,31.7,0,0,1-8.62,5.76l21.42,29.91H890.93L872.18,121.7H859.26v26.49H834V49.35ZM859.26,72.41V98.77h21.66a17.24,17.24,0,0,0,6.47-1.08,11.68,11.68,0,0,0,4.3-2.85,10.77,10.77,0,0,0,2.41-4.18,16.18,16.18,0,0,0,.76-4.94,14.39,14.39,0,0,0-3.17-9.51q-3.16-3.79-10.77-3.8Z"/><path class="cls-4" d="M992.06,49.35v98.84H966.72V49.35Z"/><path class="cls-4" d="M1099.5,49.35l39.91,98.84h-27.62l-5.45-14.45h-38.9L1062,148.19h-27.62l40-98.84ZM1087,81.79l-10.9,29h21.67Z"/></g></g></svg>